<svg xmlns="http://www.w3.org/2000/svg" width="430" height="430" fill="none" viewBox="0 0 430 430"><path fill="#8930e8" d="M336.111 321.659c0-43.224-34.972-78.195-78.196-78.195h-85.83c-43.224 0-78.196 34.971-78.196 78.195v31.361a15.234 15.234 0 0 0 15.268 15.268h19.291C166.721 371.28 169.197 385 187.869 385h52.096c18.672 0 21.251-13.72 59.42-16.712h21.458c8.459 0 15.268-6.912 15.268-15.268z"/><path fill="#8930e8" d="M228.966 243.464h-56.881c-43.224 0-78.196 34.971-78.196 78.195v31.361a15.234 15.234 0 0 0 15.268 15.268h19.291l.444.035q-.003-.15-.003-.303v-31.361c0-43.224 30.746-83.451 65.286-83.451 14.636 0 26.258-4.102 34.791-9.744" opacity=".5" style="mix-blend-mode:multiply"/><path fill="#f9c9c0" d="M181.06 242.948c0 17.331 14.133 31.464 31.464 31.464H215c17.331 0 31.464-14.133 31.464-31.464v-24.601H181.06z"/><path fill="#f9c9c0" d="m181.061 243.206-.001-.258v-24.601h65.404c0 12.018-17.75 34.861-52.29 34.861-3.686 0-7.33.458-10.897 1.33a31.2 31.2 0 0 1-2.213-11.074z" opacity=".5" style="mix-blend-mode:multiply"/><path fill="#fff" d="M247.496 327.024c0-10.11 1.031-18.26 2.269-18.26h.206c.516 0 2.373 1.341 5.984 5.055 6.499-6.293 12.895-6.293 19.394 0 3.611-3.714 5.468-5.055 5.983-5.055h.207c1.238 0 2.269 8.15 2.269 18.26v-1.135 2.27c0 8.871-7.221 16.093-16.093 16.093h-4.126c-8.872 0-16.093-7.222-16.093-16.093v-2.27"/><path stroke="#121331" stroke-linecap="round" stroke-linejoin="round" stroke-miterlimit="10" stroke-width="7" d="M247.496 327.024c0-10.11 1.031-18.26 2.269-18.26h.206c.516 0 2.373 1.341 5.984 5.055 6.499-6.293 12.895-6.293 19.394 0 3.611-3.714 5.468-5.055 5.983-5.055h.207c1.238 0 2.269 8.15 2.269 18.26v-1.135 2.27c0 8.871-7.221 16.093-16.093 16.093h-4.126c-8.872 0-16.093-7.222-16.093-16.093v-2.27"/><path fill="#f9c9c0" d="M276.174 77.48v94.493c0 33.631-27.234 60.865-60.864 60.865h-1.445c-33.63 0-60.865-27.234-60.865-60.865V77.481"/><path fill="#f9c9c0" d="M215.31 232.838c4.029 0 7.967-.391 11.777-1.137C199.099 226.22 178 201.574 178 171.973V77.481h-25v94.492c0 33.631 27.235 60.865 60.865 60.865z" opacity=".3" style="mix-blend-mode:multiply"/><path fill="#b26836" d="M276.174 141.747s2.579-39.407-37.756-60.452c0 0-12.277 45.7-89.338 61.69 0 0-26.409-77.68 6.603-96.558 3.714-2.063 9.8-1.857 13.307.412 5.055 3.198 10.11 8.46 13.205 11.142 2.373 2.063 5.468 3.198 8.666 2.991 4.332-.206 10.419-1.444 16.402-4.642 26.214-10.787 74.861-9.903 75.823 31.155.619 26.409 2.476 48.279-6.912 54.262"/><path stroke="#121331" stroke-linecap="round" stroke-linejoin="round" stroke-miterlimit="10" stroke-width="7" d="M276.174 138.652v33.321c0 33.631-27.234 60.865-60.864 60.865h-1.445c-33.63 0-60.865-27.234-60.865-60.865V142.16"/><path stroke="#121331" stroke-linecap="round" stroke-linejoin="round" stroke-miterlimit="10" stroke-width="7" d="M246.567 243.464h11.348c43.224 0 78.196 34.971 78.196 78.195v31.361c0 8.356-6.809 15.268-15.268 15.268h-21.561.207-.104C261.216 371.28 258.637 385 239.965 385h-52.096c-18.672 0-21.148-13.72-59.421-16.712h-19.291a15.234 15.234 0 0 1-15.268-15.268v-31.361c0-43.224 34.972-78.195 78.196-78.195h8.975v-20.117 19.601c0 17.331 14.133 31.464 31.464 31.464H215c17.331 0 31.464-14.133 31.464-31.464v-18.672zm29.607-101.717s2.579-39.407-37.756-60.452c0 0-12.277 45.7-89.338 61.69 0 0-26.409-77.68 6.603-96.558 3.714-2.063 9.8-1.857 13.307.412 5.055 3.198 10.11 8.46 13.205 11.142 2.373 2.063 5.468 3.198 8.666 2.991 4.332-.206 10.419-1.444 16.402-4.642 26.214-10.787 74.861-9.903 75.823 31.155.619 26.409 2.476 48.279-6.912 54.262"/></svg>